<?xml version="1.0" encoding="utf-8"?>
<!-- Generator: Adobe Illustrator 27.7.0, SVG Export Plug-In . SVG Version: 6.00 Build 0)  -->
<svg version="1.1" id="Layer_1" xmlns="http://www.w3.org/2000/svg" xmlns:xlink="http://www.w3.org/1999/xlink" x="0px" y="0px"
	 viewBox="0 0 514.36 91.27" style="enable-background:new 0 0 514.36 91.27;" xml:space="preserve">
<style type="text/css">
	.st0{fill:#B3D0BE;}
	.st1{fill:#010101;}
	.st2{fill:#E9B72D;}
	.st3{fill:none;stroke:#E9B72D;stroke-width:5;stroke-miterlimit:10;}
	.st4{fill:none;stroke:#E9B72D;stroke-width:9;stroke-linecap:round;stroke-miterlimit:10;}
	.st5{fill:#102619;stroke:#E9B72D;stroke-width:5;stroke-miterlimit:10;}
	.st6{fill:none;stroke:#0E2618;stroke-width:3;stroke-miterlimit:10;}
</style>
<path class="st0" d="M266.1,21.47c0.91,0.36,1.67,0.65,2.42,0.97c12.12,5.28,24.24,10.57,36.35,15.86c0.38,0.17,0.84,0.23,1.14,0.49
	c0.35,0.3,0.8,0.75,0.81,1.15c0.07,2.58,0.07,5.16-0.02,7.74c-0.01,0.45-0.45,1.1-0.85,1.28c-9.24,4.08-18.51,8.1-27.76,12.14
	c-3.66,1.6-7.29,3.24-10.94,4.86c-0.32,0.14-0.67,0.25-1.16,0.43c0-3.42-0.03-6.66,0.05-9.9c0.01-0.33,0.59-0.8,1-0.96
	c3.7-1.47,7.43-2.86,11.14-4.31c5.91-2.32,11.81-4.67,17.72-7.01c0.18-0.07,0.34-0.21,0.72-0.45c-1.74-0.67-3.34-1.3-4.95-1.88
	c-1.62-0.59-3.28-1.08-4.89-1.7c-3.22-1.26-6.42-2.56-9.61-3.88c-2.97-1.23-5.92-2.53-8.89-3.77c-2.27-0.94-2.28-0.92-2.28-3.4
	C266.1,26.62,266.1,24.13,266.1,21.47z"/>
<path class="st0" d="M109.73,37.88c0.05-6.89,1.09-13.62,3.3-20.17c2.08-6.15,5.2-11.75,8.78-17.11c0.39-0.58,0.82-0.76,1.47-0.43
	c1.89,0.97,3.78,1.92,5.68,2.87c0.69,0.34,0.55,0.77,0.24,1.32c-1.1,1.95-2.3,3.87-3.22,5.91c-0.97,2.15-1.76,4.4-2.47,6.65
	c-0.62,1.96-1.14,3.97-1.51,5.99c-0.51,2.75-1.06,5.52-1.19,8.3c-0.2,4.4-0.26,8.83-0.02,13.23c0.16,2.8,0.9,5.58,1.53,8.33
	c1.34,5.82,3.57,11.29,6.87,16.29c0.46,0.7,0.53,1.32-0.5,1.76c-1.56,0.68-3.05,1.52-4.57,2.31c-1.39,0.72-1.69,0.63-2.54-0.62
	c-3.06-4.48-5.8-9.16-7.68-14.24c-1.25-3.38-2.07-6.94-2.93-10.46c-0.53-2.19-0.78-4.45-1.15-6.68"/>
<path class="st0" d="M257.64,49c0.07,0.86,0.22,1.72,0.19,2.57c-0.08,2.35-0.22,4.7-0.35,7.13c-13.72,0-27.45,0-41.28,0
	c0-3.22,0-6.48,0-9.86c13.53,0,27.08,0,40.64,0C257.11,48.9,257.37,48.95,257.64,49z"/>
<path class="st0" d="M256.84,39.72c-0.16,0-0.33-0.01-0.49-0.01c-0.09,0-0.17,0-0.26-0.01c-2.58,0.02-5.16,0.04-7.74,0.05
	c-10.12,0.01-20.23,0.02-30.35,0.03c-0.58,0-1.15,0-1.81,0c0-3.34,0-6.6,0-9.93c13.83,0,27.64,0,41.38,0c0,3.17,0,6.3,0,9.43
	C257.33,39.43,257.09,39.58,256.84,39.72z"/>
<path class="st1" d="M89.33,35.18c0.09,0,0.18,0,0.27,0.01C89.51,35.18,89.42,35.18,89.33,35.18z"/>
<path class="st1" d="M96.32,35.2c0.07-0.06,0.15-0.12,0.22-0.19C96.47,35.08,96.4,35.14,96.32,35.2z"/>
<g>
	<path class="st2" d="M33.99,33.13c-1.7,0-4.79,0.68-6.41,1.36c1.08,1.79,2.01,4.77,2.01,7.75c0,9.53-6.72,13.79-13.75,13.79
		c-0.54,0-1.31-0.08-1.7-0.17c-0.7,0.68-1.47,1.79-1.47,2.72c0,1.36,0.23,1.87,7.42,2.21C27.2,61.13,33.99,61.64,33.99,71
		c0,12.43-10.82,16.94-19.86,16.94C5.64,87.94,0,84.19,0,77.98c0-3.74,2.7-7.4,5.33-9.7c-1.62-1.11-3.01-3.15-3.24-5.53
		c0.93-2.55,3.71-6.21,5.87-8.17c-2.09-1.02-6.64-4.42-6.64-12c0-10.21,7.11-15.49,14.22-15.49c3.4,0,5.8,0.85,7.73,2.13
		c1.93-2.21,6.1-4.85,9.58-5.19L33.99,33.13z M10.2,74.15c0,3.23,1.7,5.1,6.1,5.1c3.79,0,6.8-1.62,6.8-5.19
		c0-3.32-2.47-3.83-11.74-3.83C10.66,71.08,10.2,72.45,10.2,74.15z M15.22,35.51c-2.16,0-3.48,1.96-3.48,5.19
		c0,4,1.31,7.06,4.1,7.06c2.63,0,3.32-2.21,3.32-4.94C19.16,38.32,17.62,35.51,15.22,35.51z"/>
</g>
<path class="st2" d="M441.49,7.88c0,7.07,0,14.05,0,21.21c0.43-0.11,0.92-0.14,1.31-0.35c6.63-3.65,14.42-1.74,17.96,5.66
	c1.58,3.31,2.29,6.78,2.38,10.45c0.12,5-0.82,9.71-3.32,14.05c-1.88,3.25-4.5,5.67-8.3,6.46c-3.51,0.72-6.79,0.3-9.6-2.16
	c-0.23-0.2-0.53-0.32-1-0.6c0,1.16,0,2.09,0,3.1c-3.16,0-6.17,0-9.19,0c0.74-8.95,0.31-17.87,0.38-26.78
	c0.07-8.95,0.03-17.91,0-26.86c0-1.35-0.2-2.71-0.32-4.17C435.1,7.88,438.28,7.88,441.49,7.88z M441.57,53.04
	c1.06,2.1,2.99,2.99,5.13,3.2c2.69,0.26,5.18-2.1,5.88-5.28c0.28-1.28,0.43-2.58,0.61-3.88c0.4-2.93,0.07-5.77-1.24-8.42
	c-0.62-1.26-1.72-2.06-3.17-2.4c-2.22-0.52-4,0.4-5.79,1.49c-1.04,0.63-1.46,1.45-1.44,2.67c0.05,4.12,0.01,8.24,0.01,12.36
	c-0.03,0.03-0.08,0.06-0.07,0.08C441.5,52.92,441.54,52.98,441.57,53.04z"/>
<path class="st0" d="M315.33,38.84c3.32-0.06,6.09-1.25,7.52-4.38c0.69-1.5,1.05-3.23,1.16-4.88c0.24-3.48,0.07-6.98,0.35-10.45
	c0.19-2.36,0.63-4.76,1.39-6.99c1.51-4.46,5.1-6.34,9.54-6.85c2.09-0.24,4.19-0.34,6.28-0.5c0.41-0.03,0.81,0,1.27,0
	c0,2.86,0,5.58,0,8.39c-1.24,0.2-2.36,0.38-3.49,0.55c-4.69,0.68-4.54,2.45-5,5.6c-0.29,2-0.15,4.05-0.31,6.07
	c-0.28,3.61-0.12,7.29-1.61,10.72c-1.18,2.72-3.09,4.83-5.5,6.48c-0.81,0.55-0.84,0.79-0.05,1.38c2.39,1.79,4.52,3.88,5.57,6.75
	c0.58,1.57,0.97,3.27,1.09,4.94c0.28,3.92,0.29,7.86,0.55,11.78c0.09,1.36,0.53,2.73,0.97,4.03c0.42,1.24,1.49,1.82,2.73,2.06
	c1.61,0.32,3.22,0.61,4.94,0.93c0,2.64,0,5.37,0,8.32c-1.32,0-2.65,0.14-3.94-0.03c-2.15-0.28-4.32-0.57-6.39-1.17
	c-4.59-1.34-6.95-4.81-7.51-9.3c-0.5-3.97-0.33-8.02-0.62-12.02c-0.17-2.33-0.42-4.71-1.07-6.94c-0.92-3.17-3.32-5.02-7.08-5.26
	c-0.87-0.05-1.07-0.43-1.06-1.15c0.02-2.37,0.04-4.75,0.06-7.12C315.19,39.47,315.26,39.16,315.33,38.84z"/>
<path class="st0" d="M467.82,4.7c2.35,0.14,4.49,0.19,6.62,0.43c1.46,0.16,2.94,0.46,4.34,0.91c4.4,1.42,6.6,4.78,7.03,9.12
	c0.46,4.63,0.31,9.31,0.6,13.96c0.2,3.13,1,6.18,3.78,8.06c1.24,0.84,2.85,1.23,4.34,1.56c0.83,0.18,1.16,0.35,1.1,1.2
	c-0.12,1.65-0.22,3.3-0.24,4.95c-0.01,0.89,0.17,1.79,0.27,2.78c-0.68,0.14-1.32,0.27-1.95,0.4c-3.4,0.65-5.56,2.74-6.57,5.95
	c-0.89,2.84-0.97,5.77-0.91,8.77c0.08,4.19,0.33,8.46-1.17,12.53c-1.02,2.76-2.88,4.76-5.59,5.9c-3.67,1.54-7.54,1.71-11.6,1.53
	c0-2.75-0.02-5.44,0.04-8.13c0-0.19,0.55-0.5,0.88-0.54c1.06-0.15,2.15-0.09,3.19-0.3c3.25-0.65,4.02-1.4,4.38-5.18
	c0.28-2.93,0.12-5.89,0.3-8.83c0.18-3.03,0.31-6.13,1.53-8.95c1.15-2.67,3.03-4.87,5.42-6.56c0.89-0.63,1.03-1.01,0.07-1.72
	c-2.74-2.02-4.86-4.57-5.93-7.83c-0.48-1.47-0.72-3.05-0.83-4.6c-0.25-3.46-0.33-6.94-0.51-10.41c-0.04-0.82-0.18-1.64-0.38-2.43
	c-0.6-2.4-2.14-3.46-5.01-3.49c-0.71-0.01-1.42-0.01-2.12,0.03c-0.77,0.05-1.05-0.36-1.05-1.05C467.82,10.16,467.82,7.58,467.82,4.7
	z"/>
<path class="st0" d="M514.39,60.02c0,0.84,0,1.68-0.01,2.52c-0.23,4.31-2.43,7.69-5.17,10.8c-0.23,0.27-0.73,0.42-1.11,0.42
	c-2.08,0.04-4.16,0.02-6.45,0.02c1.04-1.34,2.02-2.54,2.92-3.79c0.65-0.91,1.2-1.89,1.78-2.85c0.45-0.75,0.41-1.29-0.59-1.55
	c-3-0.79-4.47-3.1-4.58-5.87c-0.18-4.55,3.95-7.81,7.79-6.76C512.68,53.97,514.25,55.92,514.39,60.02z"/>
<circle class="st0" cx="507.79" cy="36.53" r="6.57"/>
<path class="st0" d="M187.75,70.11c1.5-3.06,3.11-5.93,4.35-8.96c1.99-4.86,3.42-9.9,3.82-15.17c0.27-3.63,0.76-7.27,0.66-10.89
	c-0.29-10.99-2.6-21.47-8.61-30.88c-0.46-0.72-0.24-0.95,0.44-1.27c1.72-0.83,3.43-1.71,5.09-2.66c0.85-0.48,1.46-0.3,1.92,0.42
	c2.66,4.08,5.35,8.15,7,12.77c1.17,3.29,2.41,6.58,3.24,9.96c0.7,2.86,0.94,5.84,1.24,8.78c0.21,2.06,0.34,4.14,0.24,6.21
	c-0.21,4.73-0.88,9.4-2.14,13.99c-1.95,7.13-5.17,13.62-9.25,19.73c-1.1,1.65-1.07,1.66-2.77,0.76c-1.36-0.72-2.75-1.39-4.11-2.1
	C188.44,70.58,188.04,70.29,187.75,70.11z"/>
<circle class="st3" cx="45.77" cy="24.61" r="6.01"/>
<line class="st4" x1="45.61" y1="37.84" x2="45.61" y2="76.61"/>
<path class="st4" d="M64.39,20.6v39.8c0,0-0.66,11.06,20.83,11.06"/>
<polygon class="st2" points="95.48,71.45 77.19,60.89 77.19,82.01 "/>
<path class="st4" d="M374.7,10.59V60.4c0,0,0.66,11.06-20.83,11.06"/>
<polygon class="st2" points="343.61,71.45 361.9,60.89 361.9,82.01 "/>
<line class="st4" x1="65.29" y1="30.78" x2="77.75" y2="30.78"/>
<circle class="st3" cx="86" cy="30.78" r="6.01"/>
<line class="st4" x1="374.24" y1="10.59" x2="367.12" y2="10.59"/>
<circle class="st5" cx="359.88" cy="10.59" r="6.01"/>
<circle class="st4" cx="405.68" cy="46.18" r="15.98"/>
<polygon class="st2" points="203.98,60.45 185.69,49.89 185.69,71.01 "/>
<line class="st4" x1="150.86" y1="9.23" x2="135.25" y2="71.74"/>
<line class="st4" x1="159.27" y1="9.23" x2="174.88" y2="71.74"/>
<path class="st4" d="M143.66,44.77c0,0,6.37,15.95,42.03,15.95"/>
<circle class="st5" cx="155.06" cy="8.46" r="6.01"/>
<circle class="st5" cx="143.66" cy="46.03" r="6.01"/>
<line class="st6" x1="187.69" y1="71.63" x2="205.98" y2="60.99"/>
<line class="st6" x1="187.69" y1="49.33" x2="205.98" y2="59.98"/>
</svg>
